<mxfile host="app.diagrams.net" modified="2023-11-23T21:46:19.152Z" agent="Mozilla/5.0 (Windows NT 10.0; Win64; x64) AppleWebKit/537.36 (KHTML, like Gecko) Chrome/119.0.0.0 Safari/537.36" etag="RrbVoekYv_RsTXV8UyDq" version="22.1.3" type="device">
  <diagram name="Seite-1" id="-cnm_jDGv9NXaZOGHIGH">
    <mxGraphModel dx="2555" dy="615" grid="1" gridSize="10" guides="1" tooltips="1" connect="1" arrows="1" fold="1" page="1" pageScale="1" pageWidth="827" pageHeight="1169" math="0" shadow="0">
      <root>
        <mxCell id="0" />
        <mxCell id="1" parent="0" />
        <mxCell id="2FZ26tBGjVJlu6-Z65Pm-4" value="" style="edgeStyle=orthogonalEdgeStyle;rounded=0;orthogonalLoop=1;jettySize=auto;html=1;" edge="1" parent="1" source="2FZ26tBGjVJlu6-Z65Pm-1" target="2FZ26tBGjVJlu6-Z65Pm-2">
          <mxGeometry relative="1" as="geometry" />
        </mxCell>
        <mxCell id="2FZ26tBGjVJlu6-Z65Pm-16" style="edgeStyle=orthogonalEdgeStyle;rounded=0;orthogonalLoop=1;jettySize=auto;html=1;entryX=0;entryY=0.5;entryDx=0;entryDy=0;" edge="1" parent="1" source="2FZ26tBGjVJlu6-Z65Pm-1" target="2FZ26tBGjVJlu6-Z65Pm-15">
          <mxGeometry relative="1" as="geometry">
            <Array as="points">
              <mxPoint x="100" y="340" />
            </Array>
          </mxGeometry>
        </mxCell>
        <mxCell id="2FZ26tBGjVJlu6-Z65Pm-45" value="" style="edgeStyle=orthogonalEdgeStyle;rounded=0;orthogonalLoop=1;jettySize=auto;html=1;" edge="1" parent="1" source="2FZ26tBGjVJlu6-Z65Pm-1" target="2FZ26tBGjVJlu6-Z65Pm-44">
          <mxGeometry relative="1" as="geometry" />
        </mxCell>
        <mxCell id="2FZ26tBGjVJlu6-Z65Pm-1" value="Prompt Node" style="rounded=0;whiteSpace=wrap;html=1;" vertex="1" parent="1">
          <mxGeometry x="40" y="390" width="120" height="60" as="geometry" />
        </mxCell>
        <mxCell id="2FZ26tBGjVJlu6-Z65Pm-5" value="" style="edgeStyle=orthogonalEdgeStyle;rounded=0;orthogonalLoop=1;jettySize=auto;html=1;" edge="1" parent="1" source="2FZ26tBGjVJlu6-Z65Pm-2" target="2FZ26tBGjVJlu6-Z65Pm-3">
          <mxGeometry relative="1" as="geometry" />
        </mxCell>
        <mxCell id="2FZ26tBGjVJlu6-Z65Pm-2" value="Inputs" style="rounded=0;whiteSpace=wrap;html=1;" vertex="1" parent="1">
          <mxGeometry x="220" y="390" width="120" height="60" as="geometry" />
        </mxCell>
        <mxCell id="2FZ26tBGjVJlu6-Z65Pm-7" style="edgeStyle=orthogonalEdgeStyle;rounded=0;orthogonalLoop=1;jettySize=auto;html=1;entryX=0;entryY=0.5;entryDx=0;entryDy=0;" edge="1" parent="1" source="2FZ26tBGjVJlu6-Z65Pm-3" target="2FZ26tBGjVJlu6-Z65Pm-6">
          <mxGeometry relative="1" as="geometry" />
        </mxCell>
        <mxCell id="2FZ26tBGjVJlu6-Z65Pm-9" style="edgeStyle=orthogonalEdgeStyle;rounded=0;orthogonalLoop=1;jettySize=auto;html=1;exitX=1;exitY=0.5;exitDx=0;exitDy=0;entryX=0;entryY=0.5;entryDx=0;entryDy=0;" edge="1" parent="1" source="2FZ26tBGjVJlu6-Z65Pm-3" target="2FZ26tBGjVJlu6-Z65Pm-8">
          <mxGeometry relative="1" as="geometry" />
        </mxCell>
        <mxCell id="2FZ26tBGjVJlu6-Z65Pm-11" style="edgeStyle=orthogonalEdgeStyle;rounded=0;orthogonalLoop=1;jettySize=auto;html=1;exitX=1;exitY=0.5;exitDx=0;exitDy=0;entryX=0;entryY=0.5;entryDx=0;entryDy=0;" edge="1" parent="1" source="2FZ26tBGjVJlu6-Z65Pm-3" target="2FZ26tBGjVJlu6-Z65Pm-10">
          <mxGeometry relative="1" as="geometry" />
        </mxCell>
        <mxCell id="2FZ26tBGjVJlu6-Z65Pm-3" value="NodeConnection" style="rounded=0;whiteSpace=wrap;html=1;" vertex="1" parent="1">
          <mxGeometry x="390" y="390" width="120" height="60" as="geometry" />
        </mxCell>
        <mxCell id="2FZ26tBGjVJlu6-Z65Pm-6" value="Nullable" style="rounded=0;whiteSpace=wrap;html=1;" vertex="1" parent="1">
          <mxGeometry x="580" y="310" width="120" height="60" as="geometry" />
        </mxCell>
        <mxCell id="2FZ26tBGjVJlu6-Z65Pm-8" value="Number | String ..." style="rounded=0;whiteSpace=wrap;html=1;" vertex="1" parent="1">
          <mxGeometry x="580" y="390" width="120" height="60" as="geometry" />
        </mxCell>
        <mxCell id="2FZ26tBGjVJlu6-Z65Pm-13" value="" style="edgeStyle=orthogonalEdgeStyle;rounded=0;orthogonalLoop=1;jettySize=auto;html=1;" edge="1" parent="1" source="2FZ26tBGjVJlu6-Z65Pm-10" target="2FZ26tBGjVJlu6-Z65Pm-12">
          <mxGeometry relative="1" as="geometry" />
        </mxCell>
        <mxCell id="2FZ26tBGjVJlu6-Z65Pm-14" value="ID" style="edgeLabel;html=1;align=center;verticalAlign=middle;resizable=0;points=[];" vertex="1" connectable="0" parent="2FZ26tBGjVJlu6-Z65Pm-13">
          <mxGeometry x="-0.0043" y="-1" relative="1" as="geometry">
            <mxPoint as="offset" />
          </mxGeometry>
        </mxCell>
        <mxCell id="2FZ26tBGjVJlu6-Z65Pm-10" value="Link" style="rounded=0;whiteSpace=wrap;html=1;" vertex="1" parent="1">
          <mxGeometry x="580" y="470" width="120" height="60" as="geometry" />
        </mxCell>
        <mxCell id="2FZ26tBGjVJlu6-Z65Pm-12" value="Prompt Node" style="rounded=0;whiteSpace=wrap;html=1;" vertex="1" parent="1">
          <mxGeometry x="800" y="470" width="120" height="60" as="geometry" />
        </mxCell>
        <mxCell id="2FZ26tBGjVJlu6-Z65Pm-15" value="ID" style="rounded=0;whiteSpace=wrap;html=1;" vertex="1" parent="1">
          <mxGeometry x="220" y="310" width="120" height="60" as="geometry" />
        </mxCell>
        <mxCell id="2FZ26tBGjVJlu6-Z65Pm-19" value="" style="edgeStyle=orthogonalEdgeStyle;rounded=0;orthogonalLoop=1;jettySize=auto;html=1;" edge="1" parent="1" source="2FZ26tBGjVJlu6-Z65Pm-17" target="2FZ26tBGjVJlu6-Z65Pm-18">
          <mxGeometry relative="1" as="geometry" />
        </mxCell>
        <mxCell id="2FZ26tBGjVJlu6-Z65Pm-22" style="edgeStyle=orthogonalEdgeStyle;rounded=0;orthogonalLoop=1;jettySize=auto;html=1;" edge="1" parent="1" source="2FZ26tBGjVJlu6-Z65Pm-17" target="2FZ26tBGjVJlu6-Z65Pm-21">
          <mxGeometry relative="1" as="geometry" />
        </mxCell>
        <mxCell id="2FZ26tBGjVJlu6-Z65Pm-17" value="Data Node" style="rounded=0;whiteSpace=wrap;html=1;" vertex="1" parent="1">
          <mxGeometry x="40" y="40" width="120" height="60" as="geometry" />
        </mxCell>
        <mxCell id="2FZ26tBGjVJlu6-Z65Pm-20" style="edgeStyle=orthogonalEdgeStyle;rounded=0;orthogonalLoop=1;jettySize=auto;html=1;" edge="1" parent="1" source="2FZ26tBGjVJlu6-Z65Pm-18" target="2FZ26tBGjVJlu6-Z65Pm-1">
          <mxGeometry relative="1" as="geometry">
            <Array as="points">
              <mxPoint x="-80" y="160" />
              <mxPoint x="60" y="160" />
            </Array>
          </mxGeometry>
        </mxCell>
        <mxCell id="2FZ26tBGjVJlu6-Z65Pm-30" value="Provides Data" style="edgeLabel;html=1;align=center;verticalAlign=middle;resizable=0;points=[];" vertex="1" connectable="0" parent="2FZ26tBGjVJlu6-Z65Pm-20">
          <mxGeometry x="-0.2977" y="3" relative="1" as="geometry">
            <mxPoint x="-21" y="3" as="offset" />
          </mxGeometry>
        </mxCell>
        <mxCell id="2FZ26tBGjVJlu6-Z65Pm-18" value="Inputs" style="rounded=0;whiteSpace=wrap;html=1;" vertex="1" parent="1">
          <mxGeometry x="-120" y="40" width="120" height="60" as="geometry" />
        </mxCell>
        <mxCell id="2FZ26tBGjVJlu6-Z65Pm-23" style="edgeStyle=orthogonalEdgeStyle;rounded=0;orthogonalLoop=1;jettySize=auto;html=1;jumpStyle=arc;" edge="1" parent="1" source="2FZ26tBGjVJlu6-Z65Pm-21" target="2FZ26tBGjVJlu6-Z65Pm-1">
          <mxGeometry relative="1" as="geometry">
            <Array as="points">
              <mxPoint x="260" y="160" />
              <mxPoint x="140" y="160" />
            </Array>
          </mxGeometry>
        </mxCell>
        <mxCell id="2FZ26tBGjVJlu6-Z65Pm-31" value="Provides Data" style="edgeLabel;html=1;align=center;verticalAlign=middle;resizable=0;points=[];" vertex="1" connectable="0" parent="2FZ26tBGjVJlu6-Z65Pm-23">
          <mxGeometry x="-0.4341" y="-1" relative="1" as="geometry">
            <mxPoint as="offset" />
          </mxGeometry>
        </mxCell>
        <mxCell id="2FZ26tBGjVJlu6-Z65Pm-21" value="Outputs" style="rounded=0;whiteSpace=wrap;html=1;" vertex="1" parent="1">
          <mxGeometry x="200" y="40" width="120" height="60" as="geometry" />
        </mxCell>
        <mxCell id="2FZ26tBGjVJlu6-Z65Pm-25" value="Workflow 2..N" style="swimlane;startSize=20;" vertex="1" parent="1">
          <mxGeometry y="270" width="940" height="320" as="geometry">
            <mxRectangle y="280" width="50" height="40" as="alternateBounds" />
          </mxGeometry>
        </mxCell>
        <mxCell id="2FZ26tBGjVJlu6-Z65Pm-28" style="edgeStyle=orthogonalEdgeStyle;rounded=0;orthogonalLoop=1;jettySize=auto;html=1;entryX=0;entryY=0.5;entryDx=0;entryDy=0;" edge="1" parent="1" source="2FZ26tBGjVJlu6-Z65Pm-27" target="2FZ26tBGjVJlu6-Z65Pm-25">
          <mxGeometry relative="1" as="geometry" />
        </mxCell>
        <mxCell id="2FZ26tBGjVJlu6-Z65Pm-29" value="Includes" style="edgeLabel;html=1;align=center;verticalAlign=middle;resizable=0;points=[];" vertex="1" connectable="0" parent="2FZ26tBGjVJlu6-Z65Pm-28">
          <mxGeometry x="0.0286" y="3" relative="1" as="geometry">
            <mxPoint x="-3" y="-6" as="offset" />
          </mxGeometry>
        </mxCell>
        <mxCell id="2FZ26tBGjVJlu6-Z65Pm-27" value="Prompt" style="rounded=0;whiteSpace=wrap;html=1;" vertex="1" parent="1">
          <mxGeometry x="-400" y="240" width="120" height="60" as="geometry" />
        </mxCell>
        <mxCell id="2FZ26tBGjVJlu6-Z65Pm-36" style="edgeStyle=orthogonalEdgeStyle;rounded=0;orthogonalLoop=1;jettySize=auto;html=1;exitX=1;exitY=0.5;exitDx=0;exitDy=0;" edge="1" parent="1" source="2FZ26tBGjVJlu6-Z65Pm-32" target="2FZ26tBGjVJlu6-Z65Pm-27">
          <mxGeometry relative="1" as="geometry" />
        </mxCell>
        <mxCell id="2FZ26tBGjVJlu6-Z65Pm-37" style="edgeStyle=orthogonalEdgeStyle;rounded=0;orthogonalLoop=1;jettySize=auto;html=1;exitX=1;exitY=0.5;exitDx=0;exitDy=0;" edge="1" parent="1" source="2FZ26tBGjVJlu6-Z65Pm-32" target="2FZ26tBGjVJlu6-Z65Pm-34">
          <mxGeometry relative="1" as="geometry" />
        </mxCell>
        <mxCell id="2FZ26tBGjVJlu6-Z65Pm-32" value="Prompt DTO" style="rounded=0;whiteSpace=wrap;html=1;" vertex="1" parent="1">
          <mxGeometry x="-580" y="290" width="120" height="60" as="geometry" />
        </mxCell>
        <mxCell id="2FZ26tBGjVJlu6-Z65Pm-48" style="edgeStyle=orthogonalEdgeStyle;rounded=0;orthogonalLoop=1;jettySize=auto;html=1;jumpStyle=arc;" edge="1" parent="1" source="2FZ26tBGjVJlu6-Z65Pm-34" target="2FZ26tBGjVJlu6-Z65Pm-46">
          <mxGeometry relative="1" as="geometry">
            <Array as="points">
              <mxPoint x="-340" y="650" />
              <mxPoint x="300" y="650" />
            </Array>
          </mxGeometry>
        </mxCell>
        <mxCell id="2FZ26tBGjVJlu6-Z65Pm-34" value="Comfyui Websocket" style="rounded=0;whiteSpace=wrap;html=1;" vertex="1" parent="1">
          <mxGeometry x="-400" y="340" width="120" height="60" as="geometry" />
        </mxCell>
        <mxCell id="2FZ26tBGjVJlu6-Z65Pm-47" value="" style="edgeStyle=orthogonalEdgeStyle;rounded=0;orthogonalLoop=1;jettySize=auto;html=1;" edge="1" parent="1" source="2FZ26tBGjVJlu6-Z65Pm-44" target="2FZ26tBGjVJlu6-Z65Pm-46">
          <mxGeometry relative="1" as="geometry" />
        </mxCell>
        <mxCell id="2FZ26tBGjVJlu6-Z65Pm-44" value="Prompt UI" style="whiteSpace=wrap;html=1;rounded=0;" vertex="1" parent="1">
          <mxGeometry x="40" y="710" width="120" height="60" as="geometry" />
        </mxCell>
        <mxCell id="2FZ26tBGjVJlu6-Z65Pm-46" value="State" style="whiteSpace=wrap;html=1;rounded=0;" vertex="1" parent="1">
          <mxGeometry x="240" y="710" width="120" height="60" as="geometry" />
        </mxCell>
      </root>
    </mxGraphModel>
  </diagram>
</mxfile>
